<svg width="52" height="56" viewBox="0 0 52 56" fill="none" xmlns="http://www.w3.org/2000/svg">
<path d="M22.0719 24.6599C22.1548 24.6599 22.2324 24.7082 22.2698 24.7833L30.1452 40.6694C32.1669 44.7383 34.1832 48.8098 36.1996 52.8732C36.2584 52.986 36.3145 53.096 36.4001 53.2544C40.8285 44.3276 45.2489 35.4251 49.6693 26.5037C49.4741 26.5064 49.3752 26.4983 49.2629 26.5037C47.7707 26.5467 46.3774 26.5359 44.9173 26.5064C44.4012 26.4957 44.1686 26.5279 43.9787 26.9144C41.4195 32.1024 38.8497 37.2877 36.2798 42.473C35.9803 43.0742 35.6808 43.6781 35.3839 44.2766C35.1165 44.8242 34.6833 45.0201 34.2207 44.8054C33.7714 44.5987 33.6457 44.1102 33.9185 43.5654C35.983 39.3919 38.0528 35.2238 40.1199 31.053C41.0478 29.185 41.9758 27.3277 42.8903 25.457C43.0962 25.0463 43.3797 24.8477 43.845 24.8531C46.1903 24.8612 48.5382 24.8531 50.8834 24.8585C51.6643 24.8585 52.0173 25.4489 51.6643 26.1602C48.9687 31.5951 46.2758 37.0274 43.5856 42.4623C41.4757 46.711 39.3711 50.965 37.2612 55.2136C37.1756 55.3827 37.0927 55.5625 36.9617 55.6914C36.5659 56.1127 35.9321 55.9812 35.646 55.4176C34.9935 54.1293 34.3571 52.8303 33.7153 51.5313C29.7174 43.4715 25.7248 35.4143 21.7323 27.3545C21.3392 26.5654 20.9488 25.7764 20.5584 24.9846C20.4861 24.837 20.5931 24.6625 20.7562 24.6625H22.0773L22.0719 24.6599Z" fill="white"/>
<path d="M30.9821 56C31.1479 56 31.2549 55.8255 31.18 55.6779C29.5728 52.4277 27.963 49.1802 26.3531 45.9299C22.9757 39.1235 19.6035 32.3144 16.2314 25.5053C16.0522 25.143 15.8303 24.8477 15.3837 24.8558C14.9558 24.8612 14.7499 25.143 14.5708 25.4972C12.4555 29.7727 10.3375 34.0482 8.21426 38.3183C5.52939 43.7399 2.83918 49.1614 0.154314 54.5829C-0.228092 55.3612 0.11955 55.9249 0.983306 55.9249C3.28042 55.9302 5.57218 55.9195 7.87196 55.9329C8.39342 55.9383 8.71165 55.7316 8.94163 55.2619C10.5568 51.9714 12.1988 48.6944 13.814 45.3985C14.0012 45.0147 14.2017 44.8644 14.6349 44.8752C16.6646 44.902 18.6943 44.8939 20.724 44.8832C21.3364 44.8832 21.6921 44.5531 21.6787 44.0458C21.6707 43.5547 21.3123 43.2433 20.724 43.2433C18.3921 43.238 16.0576 43.2487 13.7257 43.238C13.2631 43.2326 12.9716 43.4312 12.771 43.8418C11.1104 47.1994 9.44437 50.5543 7.78906 53.9119C7.65535 54.1857 7.50025 54.293 7.18738 54.2877C5.57753 54.2742 3.96768 54.2823 2.35515 54.2796C2.29632 54.2796 2.24284 54.2581 2.14924 54.2313C6.56162 45.326 10.9633 36.453 15.3944 27.5156C15.4613 27.6444 15.4933 27.6981 15.5201 27.7517C16.5817 29.8881 17.6434 32.0219 18.705 34.1583C22.2884 41.3914 25.8771 48.63 29.4605 55.8685C29.498 55.9436 29.5755 55.9919 29.6584 55.9919H30.9821V56Z" fill="white"/>
<path d="M2.1681 48.2891L0.0180664 52.7632V21.5868L25.3505 0L51.5225 21.8417H42.8288L23.6791 3.11872L2.1681 21.8283V48.2891Z" fill="white"/>
</svg>
