<svg width="77" height="32" viewBox="0 0 77 32" fill="none" xmlns="http://www.w3.org/2000/svg">
<g clip-path="url(#clip0_2170_884)">
<path d="M12.5898 14.0913C12.6371 14.0913 12.6813 14.119 12.7026 14.1619L17.1945 23.2397C18.3477 25.5647 19.4977 27.8913 20.6477 30.2133C20.6813 30.2777 20.7133 30.3406 20.7621 30.4311C23.288 25.3301 25.8093 20.2429 28.3305 15.145C28.2192 15.1465 28.1627 15.1419 28.0987 15.145C27.2476 15.1695 26.4529 15.1634 25.6201 15.1465C25.3257 15.1404 25.193 15.1588 25.0848 15.3796C23.6251 18.3442 22.1593 21.3073 20.6935 24.2703C20.5227 24.6139 20.3519 24.9589 20.1825 25.3009C20.03 25.6138 19.7829 25.7258 19.5191 25.6031C19.2628 25.485 19.1911 25.2058 19.3467 24.8945C20.5242 22.5097 21.7048 20.1279 22.8838 17.7445C23.4131 16.6771 23.9423 15.6158 24.464 14.5468C24.5814 14.3122 24.7431 14.1987 25.0085 14.2018C26.3461 14.2064 27.6853 14.2018 29.023 14.2048C29.4684 14.2048 29.6697 14.5422 29.4684 14.9487C27.9309 18.0543 26.395 21.1585 24.8605 24.2642C23.6571 26.692 22.4567 29.1228 21.2533 31.5506C21.2045 31.6473 21.1572 31.75 21.0825 31.8236C20.8567 32.0644 20.4952 31.9893 20.332 31.6672C19.9599 30.931 19.5968 30.1887 19.2308 29.4464C16.9505 24.8408 14.6733 20.2368 12.3961 15.6312C12.1718 15.1803 11.9492 14.7294 11.7265 14.2769C11.6853 14.1926 11.7463 14.0929 11.8393 14.0929H12.5928L12.5898 14.0913Z" fill="black"/>
<path d="M17.6718 32C17.7663 32 17.8273 31.9003 17.7846 31.816C16.868 29.9587 15.9497 28.103 15.0315 26.2457C13.1051 22.3563 11.1818 18.4654 9.2584 14.5745C9.15621 14.3674 9.02961 14.1987 8.77489 14.2033C8.53085 14.2064 8.41341 14.3674 8.31121 14.5699C7.10473 17.013 5.89672 19.4561 4.68566 21.8962C3.15429 24.9942 1.61987 28.0922 0.0885045 31.1902C-0.129609 31.635 0.068676 31.9571 0.561337 31.9571C1.87154 31.9601 3.17869 31.954 4.49042 31.9617C4.78785 31.9647 4.96936 31.8466 5.10053 31.5782C6.02179 29.698 6.9583 27.8254 7.87956 25.942C7.98633 25.7227 8.10073 25.6368 8.34782 25.6429C9.5055 25.6583 10.6632 25.6537 11.8208 25.6475C12.1701 25.6475 12.373 25.4589 12.3654 25.169C12.3608 24.8884 12.1564 24.7105 11.8208 24.7105C10.4908 24.7074 9.15926 24.7135 7.82923 24.7074C7.56536 24.7043 7.3991 24.8178 7.28471 25.0525C6.33752 26.9711 5.38728 28.8882 4.44314 30.8068C4.36688 30.9632 4.27841 31.0246 4.09995 31.0215C3.18174 31.0139 2.26353 31.0185 1.3438 31.0169C1.31024 31.0169 1.27974 31.0047 1.22635 30.9893C3.74304 25.9006 6.25363 20.8303 8.78099 15.7232C8.81913 15.7968 8.83743 15.8275 8.85268 15.8581C9.45821 17.0789 10.0637 18.2982 10.6693 19.519C12.7131 23.6522 14.76 27.7885 16.8039 31.9249C16.8252 31.9678 16.8695 31.9954 16.9168 31.9954H17.6718V32Z" fill="black"/>
<path d="M1.23706 27.5938L0.0107422 30.1504V12.3353L14.4596 0L29.3874 12.481H24.4287L13.5063 1.78212L1.23706 12.4733V27.5938Z" fill="black"/>
<path d="M34.5216 14.5561C34.4331 14.3321 34.2592 14.2094 34.0045 14.2094C33.8794 14.2094 33.7742 14.2432 33.6933 14.3061C33.6201 14.3643 33.5591 14.4441 33.5118 14.5468L31.5717 18.8104C31.5397 18.8871 31.5244 18.9546 31.5244 19.019C31.5244 19.1325 31.5656 19.2337 31.6449 19.3135C31.7242 19.3932 31.8249 19.4347 31.9378 19.4347C32.1299 19.4347 32.2764 19.3319 32.3496 19.1494L32.8026 18.131H34.7275L34.6634 17.9623L34.5994 17.7936L34.5399 17.6372L34.4758 17.4685L34.4117 17.2998H33.1671L34.006 15.4256L34.8449 17.2998H34.8419L34.9166 17.4685L34.9913 17.6372L35.06 17.7936L35.1347 17.9623L35.2095 18.131L35.6609 19.131C35.6945 19.2107 35.7433 19.2798 35.8104 19.335C35.8852 19.3994 35.9797 19.4331 36.0819 19.4331C36.1994 19.4331 36.3031 19.3902 36.3854 19.3089C36.4663 19.2276 36.509 19.1218 36.509 19.0052C36.509 18.95 36.4937 18.8856 36.4602 18.7982L34.5277 14.5561H34.5216Z" fill="black"/>
<path d="M40.8314 14.3597C40.7521 14.4441 40.7093 14.5484 40.7093 14.6649V17.7967L38.1149 14.4702C38.0676 14.4027 38.0157 14.3521 37.9562 14.3122C37.8876 14.2662 37.8037 14.2432 37.7076 14.2432H37.6329C37.517 14.2432 37.4102 14.2877 37.3263 14.372C37.2439 14.4564 37.1997 14.5622 37.1997 14.6787V18.9976C37.1997 19.1141 37.2409 19.2184 37.3202 19.3028C37.401 19.3886 37.5078 19.4346 37.6253 19.4346C37.7427 19.4346 37.8571 19.3886 37.9364 19.3043C38.0157 19.2199 38.0584 19.1156 38.0584 18.9991V15.7722L40.72 19.1954C40.7719 19.2598 40.8253 19.3104 40.8817 19.3488C40.9534 19.3963 41.0357 19.4224 41.1562 19.4224C41.2767 19.4224 41.3774 19.3794 41.4552 19.2982C41.5299 19.2184 41.5681 19.1156 41.5681 19.0006V14.668C41.5681 14.553 41.5254 14.4472 41.446 14.3628C41.2798 14.1864 40.9854 14.1956 40.8298 14.3628L40.8314 14.3597Z" fill="black"/>
<path d="M46.2706 14.3275C46.2081 14.3828 46.1593 14.4456 46.1227 14.5238L44.6203 18.1418L43.1255 14.5407C43.0919 14.4548 43.0401 14.3812 42.9684 14.3229C42.7976 14.1864 42.5276 14.1987 42.3751 14.3613C42.2927 14.4472 42.25 14.5515 42.25 14.6634C42.25 14.7432 42.2668 14.8137 42.2912 14.8536L44.1307 19.1203C44.1688 19.2169 44.2267 19.2951 44.3015 19.3549C44.3838 19.4193 44.483 19.4531 44.5989 19.4531H44.6264C44.7438 19.4531 44.843 19.4193 44.9238 19.3534C44.9924 19.2951 45.0489 19.2199 45.0931 19.1249L46.9402 14.8336C46.9631 14.7815 46.9753 14.7217 46.9753 14.6557C46.9753 14.5438 46.9341 14.441 46.8548 14.3582C46.7053 14.2018 46.4399 14.1818 46.2691 14.326L46.2706 14.3275Z" fill="black"/>
<path d="M47.8327 14.3582C47.7488 14.4426 47.7061 14.5499 47.7061 14.6726V18.9914C47.7061 19.1141 47.7503 19.2215 47.8327 19.3058C47.9165 19.3902 48.0218 19.4346 48.1392 19.4346C48.2567 19.4346 48.3695 19.3902 48.4519 19.3058C48.5358 19.2215 48.58 19.1126 48.58 18.9914V14.6726C48.58 14.5514 48.5358 14.4426 48.4534 14.3582C48.2902 14.1926 48.005 14.1849 47.8342 14.3582H47.8327Z" fill="black"/>
<path d="M53.0764 18.5697H50.517V17.2262H52.7363C52.8492 17.2262 52.9498 17.1848 53.0276 17.105C53.1069 17.0253 53.1497 16.924 53.1497 16.8105C53.1497 16.6971 53.1085 16.6035 53.0322 16.5222C52.9529 16.4379 52.8507 16.3949 52.7363 16.3949H50.517V15.0928H53.0429C53.1542 15.0928 53.2549 15.0514 53.3357 14.9717C53.4135 14.8919 53.4562 14.7907 53.4562 14.6787C53.4562 14.5668 53.415 14.464 53.3357 14.3843C53.2564 14.3045 53.1558 14.2631 53.0429 14.2631H50.0762C49.9588 14.2631 49.8536 14.3076 49.7712 14.3904C49.6873 14.4748 49.6431 14.5821 49.6431 14.7048V18.9561C49.6431 19.0788 49.6873 19.1877 49.7697 19.2706C49.852 19.3549 49.9588 19.3994 50.0762 19.3994H53.0764C53.1893 19.3994 53.29 19.358 53.3693 19.2782C53.4486 19.1985 53.4898 19.0972 53.4898 18.9838C53.4898 18.8703 53.4486 18.7706 53.3678 18.6893C53.2885 18.6111 53.1878 18.5697 53.0764 18.5697Z" fill="black"/>
<path d="M59.6779 14.3567C59.5941 14.441 59.5498 14.5484 59.5498 14.6711V16.3949H57.1308V14.6711C57.1308 14.5484 57.0865 14.4395 57.0042 14.3567C56.841 14.191 56.5527 14.1864 56.3864 14.3567C56.3025 14.441 56.2583 14.5484 56.2583 14.6711V18.9899C56.2583 19.1126 56.3025 19.2215 56.3849 19.3043C56.5542 19.4761 56.8425 19.4684 57.0026 19.3043C57.0865 19.2199 57.1308 19.1126 57.1308 18.9899V17.2384H59.5498V18.9899C59.5498 19.1126 59.5941 19.2215 59.6764 19.3043C59.7588 19.3886 59.8671 19.4331 59.9891 19.4331C60.1111 19.4331 60.2118 19.3886 60.2957 19.3043C60.3796 19.2199 60.4223 19.1126 60.4223 18.9899V14.6711C60.4223 14.5484 60.378 14.441 60.2957 14.3567C60.1249 14.1834 59.8366 14.1926 59.6779 14.3567Z" fill="black"/>
<path d="M65.7165 14.9701C65.4892 14.7294 65.2131 14.5361 64.8959 14.3935C64.2583 14.1098 63.4179 14.1098 62.7712 14.3966C62.4524 14.5407 62.1763 14.7355 61.9475 14.9763C61.7203 15.2171 61.5418 15.5023 61.4152 15.8229C61.2901 16.1434 61.2261 16.4823 61.2261 16.8443C61.2261 17.2062 61.2886 17.5298 61.4122 17.8473C61.5357 18.1663 61.7142 18.45 61.9414 18.6893C62.1687 18.9301 62.4448 19.1249 62.762 19.2659C63.0808 19.407 63.4377 19.4791 63.8221 19.4791C64.2064 19.4791 64.5649 19.4055 64.8867 19.2629C65.204 19.1203 65.4816 18.9239 65.7104 18.6832C65.9376 18.4424 66.1161 18.1571 66.2427 17.8366C66.3677 17.516 66.4318 17.1771 66.4318 16.8151C66.4318 16.4532 66.3693 16.1296 66.2457 15.8121C66.1222 15.4931 65.9437 15.2094 65.7165 14.9686V14.9701ZM65.4068 17.5513C65.3214 17.7691 65.204 17.9608 65.0545 18.1218C64.9081 18.2829 64.7281 18.4117 64.5191 18.5037C64.1058 18.6878 63.5613 18.6908 63.1494 18.5006C62.9405 18.4056 62.7574 18.2752 62.6049 18.1142C62.4524 17.9516 62.3319 17.7599 62.248 17.5406C62.1626 17.3228 62.1199 17.0835 62.1199 16.8167C62.1199 16.5652 62.1626 16.3274 62.248 16.1112C62.3334 15.8934 62.4509 15.7017 62.6003 15.5407C62.7483 15.3796 62.9283 15.2508 63.1357 15.1588C63.3416 15.0668 63.5719 15.0192 63.8206 15.0192C64.0692 15.0192 64.2995 15.0668 64.5039 15.1619C64.7128 15.2569 64.8959 15.3873 65.0484 15.5483C65.2009 15.7109 65.3214 15.9026 65.4053 16.1219C65.4907 16.3397 65.5334 16.579 65.5334 16.8458C65.5334 17.0973 65.4907 17.3351 65.4053 17.5513H65.4068Z" fill="black"/>
<path d="M71.7044 14.2432H71.6434C71.4756 14.2432 71.3383 14.3199 71.2514 14.461L69.6865 16.8274L68.1215 14.4594C68.0819 14.4011 68.0331 14.3521 67.9721 14.3107C67.9034 14.2647 67.8226 14.2416 67.7295 14.2416H67.6685C67.5511 14.2416 67.4458 14.2861 67.3635 14.3689C67.2796 14.4533 67.2354 14.5591 67.2354 14.6772V18.996C67.2354 19.1187 67.2781 19.2261 67.3589 19.3058C67.5221 19.473 67.8119 19.4669 67.9721 19.3058C68.0529 19.2245 68.0956 19.1156 68.0956 18.9945V15.9624L69.3112 17.7599C69.4317 17.9332 69.5782 17.9685 69.6804 17.9685C69.7825 17.9685 69.9229 17.9317 70.0449 17.7568L71.2651 15.9532V18.9853C71.2651 19.1018 71.3093 19.2092 71.3902 19.292C71.4741 19.381 71.5824 19.427 71.7059 19.427C71.8234 19.427 71.9286 19.3825 72.0125 19.2982C72.0964 19.2138 72.1391 19.1064 72.1391 18.9838V14.6711C72.1391 14.5545 72.0948 14.4472 72.011 14.3628C71.9271 14.28 71.8218 14.2355 71.7059 14.2355L71.7044 14.2432Z" fill="black"/>
<path d="M76.878 18.6893C76.7987 18.6111 76.698 18.5697 76.5867 18.5697H74.0273V17.2262H76.2466C76.3594 17.2262 76.4601 17.1848 76.5379 17.105C76.6172 17.0253 76.6599 16.924 76.6599 16.8105C76.6599 16.6971 76.6187 16.6035 76.5425 16.5222C76.4631 16.4379 76.361 16.3949 76.2466 16.3949H74.0273V15.0928H76.5531C76.6645 15.0928 76.7652 15.0514 76.846 14.9717C76.9238 14.8919 76.9665 14.7907 76.9665 14.6787C76.9665 14.5668 76.9253 14.464 76.846 14.3843C76.7667 14.3045 76.666 14.2631 76.5531 14.2631H73.5865C73.4691 14.2631 73.3638 14.3076 73.2814 14.3904C73.1976 14.4748 73.1533 14.5821 73.1533 14.7048V18.9561C73.1533 19.0788 73.1976 19.1877 73.2799 19.2706C73.3623 19.3549 73.4691 19.3994 73.5865 19.3994H76.5867C76.6996 19.3994 76.8002 19.358 76.8795 19.2782C76.9589 19.1985 77 19.0972 77 18.9838C77 18.8703 76.9589 18.7706 76.878 18.6893Z" fill="black"/>
<path d="M32.3753 23.0909L32.0535 24.0694H31.6401L32.691 20.9576H33.173L34.2285 24.0694H33.8014L33.4705 23.0909H32.3723H32.3753ZM33.3896 22.7765L33.0861 21.8808C33.0175 21.6784 32.9717 21.4928 32.9259 21.3134H32.9168C32.871 21.4974 32.8207 21.6876 32.7612 21.8762L32.4577 22.7765H33.3896Z" fill="black"/>
<path d="M34.657 22.5311C34.657 22.2673 34.6524 22.0419 34.6387 21.8333H34.9925L35.0063 22.2719H35.0246C35.1252 21.9713 35.3693 21.7827 35.6392 21.7827C35.685 21.7827 35.717 21.7873 35.7536 21.7965V22.1799C35.7125 22.1707 35.6713 22.1661 35.6164 22.1661C35.3311 22.1661 35.1298 22.3839 35.0749 22.6876C35.0657 22.7428 35.0566 22.8072 35.0566 22.8762V24.0679H34.657V22.5296V22.5311Z" fill="black"/>
<path d="M37.6956 23.9866C37.5903 24.0418 37.3555 24.1154 37.058 24.1154C36.3869 24.1154 35.9507 23.6584 35.9507 22.9744C35.9507 22.2903 36.4189 21.7873 37.145 21.7873C37.3844 21.7873 37.5949 21.8471 37.7047 21.9023L37.6132 22.2167C37.5171 22.1615 37.3661 22.1109 37.145 22.1109C36.6355 22.1109 36.3595 22.4897 36.3595 22.956C36.3595 23.4728 36.6904 23.7918 37.1312 23.7918C37.3616 23.7918 37.5126 23.732 37.627 23.6814L37.6956 23.9866Z" fill="black"/>
<path d="M38.1685 20.7904H38.5727V22.1845H38.5818C38.6459 22.0695 38.7465 21.9667 38.8716 21.8977C38.9906 21.8287 39.1339 21.7827 39.285 21.7827C39.5839 21.7827 40.0613 21.9667 40.0613 22.7382V24.0679H39.6571V22.7842C39.6571 22.4238 39.5244 22.1201 39.1431 22.1201C38.8808 22.1201 38.6748 22.3041 38.6016 22.5265C38.5788 22.5817 38.5742 22.6416 38.5742 22.7198V24.0679H38.17V20.7889L38.1685 20.7904Z" fill="black"/>
<path d="M41.1669 21.206C41.1714 21.3441 41.0708 21.4545 40.9091 21.4545C40.7672 21.4545 40.665 21.3441 40.665 21.206C40.665 21.068 40.7703 20.9514 40.9182 20.9514C41.0662 20.9514 41.1669 21.0619 41.1669 21.206ZM40.7169 24.0694V21.8348H41.1211V24.0694H40.7169Z" fill="black"/>
<path d="M42.2773 21.1922V21.8333H42.8554V22.1431H42.2773V23.3486C42.2773 23.6262 42.3551 23.7826 42.5808 23.7826C42.6861 23.7826 42.7639 23.7688 42.8157 23.755L42.834 24.0602C42.7562 24.0924 42.6327 24.1154 42.4756 24.1154C42.288 24.1154 42.1354 24.0556 42.0393 23.9452C41.925 23.8255 41.8838 23.6262 41.8838 23.3639V22.1446H41.5391V21.8348H41.8838V21.2996L42.2788 21.1938L42.2773 21.1922Z" fill="black"/>
<path d="M43.508 23.0265C43.5172 23.5756 43.8665 23.8025 44.2707 23.8025C44.5605 23.8025 44.7343 23.7519 44.8853 23.6875L44.954 23.9789C44.8121 24.0433 44.5681 24.1169 44.2142 24.1169C43.5294 24.1169 43.1206 23.6645 43.1206 22.9897C43.1206 22.3149 43.5157 21.7842 44.1624 21.7842C44.8884 21.7842 45.0806 22.4253 45.0806 22.8363C45.0806 22.9191 45.0714 22.9836 45.0668 23.025H43.505L43.508 23.0265ZM44.6932 22.7351C44.6977 22.4759 44.5879 22.0741 44.1334 22.0741C43.7246 22.0741 43.5462 22.4529 43.5141 22.7351H44.6947H44.6932Z" fill="black"/>
<path d="M47.1673 23.9866C47.062 24.0418 46.8271 24.1154 46.5297 24.1154C45.8586 24.1154 45.4224 23.6584 45.4224 22.9744C45.4224 22.2903 45.8906 21.7873 46.6166 21.7873C46.8561 21.7873 47.0666 21.8471 47.1764 21.9023L47.0849 22.2167C46.9888 22.1615 46.8378 22.1109 46.6166 22.1109C46.1072 22.1109 45.8311 22.4897 45.8311 22.956C45.8311 23.4728 46.1621 23.7918 46.6029 23.7918C46.8332 23.7918 46.9842 23.732 47.0986 23.6814L47.1673 23.9866Z" fill="black"/>
<path d="M48.186 21.1922V21.8333H48.7641V22.1431H48.186V23.3486C48.186 23.6262 48.2638 23.7826 48.4895 23.7826C48.5948 23.7826 48.6725 23.7688 48.7244 23.755L48.7427 24.0602C48.6649 24.0924 48.5414 24.1154 48.3843 24.1154C48.1967 24.1154 48.0441 24.0556 47.948 23.9452C47.8336 23.8255 47.7925 23.6262 47.7925 23.3639V22.1446H47.4478V21.8348H47.7925V21.2996L48.1875 21.1938L48.186 21.1922Z" fill="black"/>
<path d="M51.0782 23.4605C51.0782 23.6906 51.0827 23.8946 51.0965 24.0694H50.738L50.7152 23.7044H50.706C50.6008 23.8838 50.3659 24.12 49.9708 24.12C49.6215 24.12 49.2036 23.9268 49.2036 23.1415V21.8348H49.6078V23.0725C49.6078 23.4973 49.7359 23.7841 50.1035 23.7841C50.375 23.7841 50.5626 23.5955 50.6358 23.4145C50.6587 23.3547 50.6724 23.2811 50.6724 23.2075V21.8364H51.0766V23.4621L51.0782 23.4605Z" fill="black"/>
<path d="M51.7493 22.5311C51.7493 22.2673 51.7447 22.0419 51.731 21.8333H52.0848L52.0985 22.2719H52.1168C52.2175 21.9713 52.4616 21.7827 52.7315 21.7827C52.7773 21.7827 52.8093 21.7873 52.8459 21.7965V22.1799C52.8047 22.1707 52.7636 22.1661 52.7087 22.1661C52.4234 22.1661 52.2221 22.3839 52.1672 22.6876C52.158 22.7428 52.1489 22.8072 52.1489 22.8762V24.0679H51.7493V22.5296V22.5311Z" fill="black"/>
<path d="M53.4284 23.0265C53.4376 23.5756 53.7869 23.8025 54.1911 23.8025C54.4809 23.8025 54.6547 23.7519 54.8057 23.6875L54.8744 23.9789C54.7325 24.0433 54.4885 24.1169 54.1346 24.1169C53.4498 24.1169 53.041 23.6645 53.041 22.9897C53.041 22.3149 53.4361 21.7842 54.0828 21.7842C54.8088 21.7842 55.001 22.4253 55.001 22.8363C55.001 22.9191 54.9918 22.9836 54.9873 23.025H53.4254L53.4284 23.0265ZM54.6136 22.7351C54.6181 22.4759 54.5083 22.0741 54.0538 22.0741C53.645 22.0741 53.4666 22.4529 53.4345 22.7351H54.6151H54.6136Z" fill="black"/>
<path d="M58.2102 24.0694C58.1309 23.9896 58.0562 23.9099 57.9479 23.7933C57.7069 24.0188 57.4369 24.1154 57.1288 24.1154C56.5843 24.1154 56.2686 23.7473 56.2686 23.3256C56.2686 22.9422 56.4973 22.6784 56.8161 22.502V22.4897C56.6712 22.3057 56.5828 22.1017 56.5828 21.9008C56.5828 21.5588 56.8283 21.2076 57.2935 21.2076C57.6428 21.2076 57.9128 21.4422 57.9128 21.8042C57.9128 22.1002 57.742 22.3348 57.2981 22.5557V22.5679C57.5345 22.844 57.8014 23.1523 57.9799 23.3532C58.108 23.1569 58.1965 22.8854 58.2499 22.5296H58.5824C58.5076 22.9728 58.3871 23.3225 58.1797 23.5694C58.3292 23.7289 58.4741 23.8869 58.6403 24.0663H58.2087L58.2102 24.0694ZM57.7694 23.5848C57.6032 23.4007 57.292 23.0587 56.9809 22.6998C56.8314 22.7965 56.6194 22.9759 56.6194 23.2719C56.6194 23.594 56.8558 23.8393 57.1929 23.8393C57.4339 23.8393 57.6382 23.7305 57.7709 23.5848H57.7694ZM56.9183 21.8686C56.9183 22.0695 57.0098 22.2229 57.1303 22.3732C57.4125 22.2106 57.5955 22.0603 57.5955 21.8226C57.5955 21.6508 57.4994 21.4591 57.2722 21.4591C57.0449 21.4591 56.9198 21.6508 56.9198 21.8686H56.9183Z" fill="black"/>
<path d="M60.3776 20.9576V24.0694H59.978V20.9576H60.3776Z" fill="black"/>
<path d="M61.1067 22.4391C61.1067 22.2075 61.1021 22.0189 61.0884 21.8348H61.4468L61.4697 22.2045H61.4788C61.5887 21.9928 61.8464 21.7842 62.214 21.7842C62.5221 21.7842 62.9995 21.9683 62.9995 22.7351V24.0694H62.5953V22.7811C62.5953 22.4207 62.4626 22.1216 62.0813 22.1216C61.8144 22.1216 61.6085 22.3103 61.5399 22.5373C61.5216 22.5879 61.5124 22.6569 61.5124 22.7259V24.0694H61.1082V22.4391H61.1067Z" fill="black"/>
<path d="M64.124 21.1922V21.8333H64.702V22.1431H64.124V23.3486C64.124 23.6262 64.2018 23.7826 64.4275 23.7826C64.5327 23.7826 64.6105 23.7688 64.6624 23.755L64.6807 24.0602C64.6029 24.0924 64.4794 24.1154 64.3223 24.1154C64.1346 24.1154 63.9821 24.0556 63.886 23.9452C63.7716 23.8255 63.7304 23.6262 63.7304 23.3639V22.1446H63.3857V21.8348H63.7304V21.2996L64.1255 21.1938L64.124 21.1922Z" fill="black"/>
<path d="M65.3532 23.0265C65.3624 23.5756 65.7117 23.8025 66.1159 23.8025C66.4057 23.8025 66.5796 23.7519 66.7306 23.6875L66.7992 23.9789C66.6573 24.0433 66.4133 24.1169 66.0594 24.1169C65.3746 24.1169 64.9658 23.6645 64.9658 22.9897C64.9658 22.3149 65.3609 21.7842 66.0076 21.7842C66.7336 21.7842 66.9258 22.4253 66.9258 22.8363C66.9258 22.9191 66.9166 22.9836 66.9121 23.025H65.3502L65.3532 23.0265ZM66.5384 22.7351C66.5429 22.4759 66.4331 22.0741 65.9786 22.0741C65.5698 22.0741 65.3914 22.4529 65.3593 22.7351H66.5399H66.5384Z" fill="black"/>
<path d="M67.4289 22.5311C67.4289 22.2673 67.4244 22.0419 67.4106 21.8333H67.7645L67.7782 22.2719H67.7965C67.8972 21.9713 68.1412 21.7827 68.4112 21.7827C68.457 21.7827 68.489 21.7873 68.5256 21.7965V22.1799C68.4844 22.1707 68.4433 22.1661 68.3883 22.1661C68.1031 22.1661 67.9018 22.3839 67.8469 22.6876C67.8377 22.7428 67.8286 22.8072 67.8286 22.8762V24.0679H67.4289V22.5296V22.5311Z" fill="black"/>
<path d="M69.3983 21.206C69.4029 21.3441 69.3022 21.4545 69.1405 21.4545C68.9987 21.4545 68.8965 21.3441 68.8965 21.206C68.8965 21.068 69.0017 20.9514 69.1497 20.9514C69.2976 20.9514 69.3983 21.0619 69.3983 21.206ZM68.9483 24.0694V21.8348H69.3525V24.0694H68.9483Z" fill="black"/>
<path d="M72.0338 22.933C72.0338 23.7596 71.4649 24.12 70.928 24.12C70.327 24.12 69.8618 23.6768 69.8618 22.9698C69.8618 22.2213 70.3484 21.7827 70.9646 21.7827C71.5808 21.7827 72.0338 22.2489 72.0338 22.933ZM70.2706 22.956C70.2706 23.4452 70.5512 23.8148 70.9463 23.8148C71.3413 23.8148 71.622 23.4498 71.622 22.9468C71.622 22.5679 71.4344 22.0879 70.9554 22.0879C70.4765 22.0879 70.2706 22.5311 70.2706 22.956Z" fill="black"/>
<path d="M72.5432 22.5311C72.5432 22.2673 72.5386 22.0419 72.5249 21.8333H72.8788L72.8925 22.2719H72.9108C73.0115 21.9713 73.2555 21.7827 73.5255 21.7827C73.5712 21.7827 73.6033 21.7873 73.6399 21.7965V22.1799C73.5987 22.1707 73.5575 22.1661 73.5026 22.1661C73.2174 22.1661 73.016 22.3839 72.9611 22.6876C72.952 22.7428 72.9428 22.8072 72.9428 22.8762V24.0679H72.5432V22.5296V22.5311Z" fill="black"/>
</g>
<defs>
<clipPath id="clip0_2170_884">
<rect width="77" height="32" fill="white"/>
</clipPath>
</defs>
</svg>
