<svg width="30" height="32" viewBox="0 0 30 32" fill="none" xmlns="http://www.w3.org/2000/svg">
<path d="M12.589 14.0913C12.6363 14.0913 12.6806 14.119 12.7019 14.1619L17.1938 23.2397C18.3469 25.5647 19.497 27.8913 20.647 30.2133C20.6806 30.2777 20.7126 30.3406 20.7614 30.4311C23.2873 25.3301 25.8085 20.2429 28.3298 15.145C28.2184 15.1465 28.162 15.1419 28.0979 15.145C27.2468 15.1695 26.4522 15.1634 25.6194 15.1465C25.325 15.1404 25.1923 15.1588 25.084 15.3796C23.6243 18.3442 22.1586 21.3073 20.6928 24.2703C20.5219 24.6139 20.3511 24.9589 20.1818 25.3009C20.0293 25.6138 19.7822 25.7258 19.5183 25.6031C19.2621 25.485 19.1904 25.2058 19.346 24.8945C20.5235 22.5097 21.704 20.1279 22.8831 17.7445C23.4123 16.6771 23.9416 15.6158 24.4632 14.5468C24.5807 14.3122 24.7424 14.1987 25.0078 14.2018C26.3454 14.2064 27.6846 14.2018 29.0223 14.2048C29.4676 14.2048 29.669 14.5422 29.4676 14.9487C27.9302 18.0543 26.3942 21.1585 24.8598 24.2642C23.6564 26.692 22.456 29.1228 21.2525 31.5506C21.2037 31.6473 21.1565 31.75 21.0817 31.8236C20.856 32.0644 20.4945 31.9893 20.3313 31.6672C19.9591 30.931 19.5961 30.1887 19.23 29.4464C16.9498 24.8408 14.6726 20.2368 12.3953 15.6312C12.1711 15.1803 11.9484 14.7294 11.7257 14.2769C11.6846 14.1926 11.7456 14.0929 11.8386 14.0929H12.5921L12.589 14.0913Z" fill="white"/>
<path d="M17.6713 32C17.7658 32 17.8269 31.9003 17.7842 31.816C16.8675 29.9587 15.9493 28.103 15.031 26.2457C13.1046 22.3563 11.1813 18.4654 9.25791 14.5745C9.15572 14.3674 9.02912 14.1987 8.77441 14.2033C8.53036 14.2064 8.41292 14.3674 8.31072 14.5699C7.10424 17.013 5.89623 19.4561 4.68517 21.8962C3.1538 24.9942 1.61938 28.0922 0.0880162 31.1902C-0.130097 31.635 0.0681878 31.9571 0.560849 31.9571C1.87105 31.9601 3.1782 31.954 4.48993 31.9617C4.78736 31.9647 4.96887 31.8466 5.10004 31.5782C6.0213 29.698 6.95781 27.8254 7.87907 25.942C7.98584 25.7227 8.10024 25.6368 8.34733 25.6429C9.50501 25.6583 10.6627 25.6537 11.8204 25.6475C12.1696 25.6475 12.3725 25.4589 12.3649 25.169C12.3603 24.8884 12.1559 24.7105 11.8204 24.7105C10.4903 24.7074 9.15877 24.7135 7.82874 24.7074C7.56487 24.7043 7.39862 24.8178 7.28422 25.0525C6.33703 26.9711 5.38679 28.8882 4.44265 30.8068C4.36639 30.9632 4.27792 31.0246 4.09947 31.0215C3.18126 31.0139 2.26305 31.0185 1.34331 31.0169C1.30975 31.0169 1.27925 31.0047 1.22586 30.9893C3.74255 25.9006 6.25314 20.8303 8.78051 15.7232C8.81864 15.7968 8.83694 15.8275 8.85219 15.8581C9.45772 17.0789 10.0633 18.2982 10.6688 19.519C12.7126 23.6522 14.7595 27.7885 16.8034 31.9249C16.8248 31.9678 16.869 31.9954 16.9163 31.9954H17.6713V32Z" fill="white"/>
<path d="M1.23657 27.5938L0.0102539 30.1504V12.3353L14.4591 0L29.3869 12.481H24.4282L13.5058 1.78212L1.23657 12.4733V27.5938Z" fill="white"/>
</svg>
