<svg width="135" height="56" viewBox="0 0 135 56" fill="none" xmlns="http://www.w3.org/2000/svg">
<g clip-path="url(#clip0_2170_584)">
<path d="M22.0725 24.6599C22.1554 24.6599 22.233 24.7082 22.2704 24.7833L30.1459 40.6694C32.1675 44.7383 34.1838 48.8098 36.2002 52.8732C36.259 52.986 36.3152 53.096 36.4007 53.2544C40.8292 44.3276 45.2496 35.4251 49.67 26.5037C49.4747 26.5064 49.3758 26.4983 49.2635 26.5037C47.7713 26.5467 46.3781 26.5359 44.918 26.5064C44.4018 26.4957 44.1692 26.5279 43.9793 26.9144C41.4201 32.1024 38.8503 37.2877 36.2804 42.473C35.9809 43.0742 35.6814 43.6781 35.3846 44.2766C35.1171 44.8242 34.6839 45.0201 34.2213 44.8054C33.772 44.5987 33.6463 44.1102 33.9191 43.5654C35.9836 39.3919 38.0534 35.2238 40.1205 31.053C41.0484 29.1849 41.9764 27.3277 42.8909 25.457C43.0968 25.0463 43.3803 24.8477 43.8456 24.8531C46.1909 24.8612 48.5388 24.8531 50.884 24.8585C51.6649 24.8585 52.0179 25.4489 51.6649 26.1602C48.9693 31.5951 46.2764 37.0274 43.5862 42.4623C41.4763 46.711 39.3717 50.965 37.2618 55.2136C37.1762 55.3827 37.0933 55.5625 36.9623 55.6914C36.5665 56.1127 35.9328 55.9812 35.6466 55.4176C34.9941 54.1293 34.3577 52.8303 33.7159 51.5313C29.718 43.4715 25.7255 35.4143 21.7329 27.3545C21.3398 26.5654 20.9494 25.7764 20.559 24.9846C20.4868 24.837 20.5937 24.6625 20.7569 24.6625H22.0779L22.0725 24.6599Z" fill="white"/>
<path d="M30.9829 56C31.1487 56 31.2556 55.8255 31.1807 55.6779C29.5736 52.4277 27.9637 49.1802 26.3539 45.9299C22.9764 39.1235 19.6043 32.3144 16.2321 25.5053C16.053 25.143 15.831 24.8477 15.3844 24.8558C14.9566 24.8612 14.7507 25.143 14.5715 25.4972C12.4562 29.7727 10.3383 34.0482 8.21499 38.3183C5.53012 43.7399 2.83991 49.1614 0.155047 54.5829C-0.227359 55.3612 0.120282 55.9249 0.984039 55.9249C3.28115 55.9302 5.57291 55.9195 7.87269 55.9329C8.39416 55.9383 8.71238 55.7316 8.94236 55.2619C10.5576 51.9714 12.1995 48.6944 13.8147 45.3985C14.0019 45.0147 14.2024 44.8644 14.6357 44.8752C16.6654 44.902 18.6951 44.8939 20.7247 44.8832C21.3371 44.8832 21.6928 44.5531 21.6794 44.0458C21.6714 43.5547 21.3131 43.2433 20.7247 43.2433C18.3929 43.238 16.0583 43.2487 13.7264 43.238C13.2638 43.2326 12.9723 43.4312 12.7718 43.8418C11.1111 47.1994 9.44511 50.5543 7.7898 53.9119C7.65609 54.1857 7.50099 54.293 7.18811 54.2877C5.57826 54.2742 3.96841 54.2823 2.35589 54.2796C2.29706 54.2796 2.24357 54.2581 2.14998 54.2313C6.56235 45.3261 10.964 36.453 15.3951 27.5156C15.462 27.6444 15.4941 27.6981 15.5208 27.7517C16.5825 29.8881 17.6441 32.0219 18.7057 34.1583C22.2891 41.3914 25.8779 48.63 29.4613 55.8685C29.4987 55.9436 29.5762 55.992 29.6591 55.992H30.9829V56Z" fill="white"/>
<path d="M2.16871 48.2891L0.0186768 52.7632V21.5868L25.3511 0L51.5231 21.8417H42.8294L23.6797 3.11872L2.16871 21.8283V48.2891Z" fill="white"/>
<path d="M60.5244 25.4731C60.3693 25.0812 60.0644 24.8665 59.6179 24.8665C59.3986 24.8665 59.2141 24.9256 59.0723 25.0356C58.944 25.1376 58.837 25.2772 58.7541 25.457L55.3526 32.9183C55.2964 33.0525 55.2697 33.1706 55.2697 33.2833C55.2697 33.4819 55.3419 33.659 55.4809 33.7986C55.62 33.9382 55.7965 34.0106 55.9944 34.0106C56.3313 34.0106 56.588 33.8308 56.7164 33.5114L57.5106 31.7293H60.8854L60.7731 31.4341L60.6608 31.1388L60.5565 30.8651L60.4442 30.5699L60.3319 30.2746H58.1497L59.6205 26.9949L61.0913 30.2746H61.086L61.217 30.5699L61.348 30.8651L61.4684 31.1388L61.5994 31.4341L61.7304 31.7293L62.522 33.4792C62.5808 33.6188 62.6664 33.7396 62.7841 33.8362C62.9151 33.9489 63.0809 34.008 63.2601 34.008C63.466 34.008 63.6478 33.9328 63.7922 33.7906C63.934 33.6483 64.0088 33.4631 64.0088 33.2591C64.0088 33.1625 63.9821 33.0498 63.9233 32.8968L60.5351 25.4731H60.5244Z" fill="white"/>
<path d="M71.5874 25.1295C71.4484 25.2772 71.3735 25.4597 71.3735 25.6637V31.1442L66.8247 25.3228C66.7418 25.2047 66.6509 25.1161 66.5466 25.0463C66.4263 24.9658 66.2792 24.9256 66.1107 24.9256H65.9797C65.7764 24.9256 65.5893 25.0034 65.4422 25.151C65.2978 25.2986 65.2202 25.4838 65.2202 25.6878V33.2457C65.2202 33.4497 65.2924 33.6322 65.4315 33.7798C65.5732 33.9301 65.7604 34.0106 65.9663 34.0106C66.1722 34.0106 66.3728 33.9301 66.5118 33.7825C66.6509 33.6349 66.7258 33.4524 66.7258 33.2484V27.6014L71.3922 33.592C71.4831 33.7047 71.5767 33.7932 71.6757 33.8603C71.8013 33.9435 71.9457 33.9892 72.157 33.9892C72.3683 33.9892 72.5448 33.914 72.6811 33.7718C72.8122 33.6322 72.879 33.4524 72.879 33.2511V25.669C72.879 25.4677 72.8042 25.2825 72.6651 25.1349C72.3736 24.8263 71.8575 24.8424 71.5847 25.1349L71.5874 25.1295Z" fill="white"/>
<path d="M81.1236 25.0732C81.0139 25.1698 80.9284 25.2798 80.8642 25.4167L78.2301 31.7481L75.6094 25.4463C75.5506 25.296 75.4597 25.1671 75.334 25.0651C75.0345 24.8263 74.5612 24.8477 74.2937 25.1322C74.1493 25.2825 74.0745 25.465 74.0745 25.661C74.0745 25.8005 74.1039 25.924 74.1467 25.9938L77.3717 33.4604C77.4386 33.6295 77.5402 33.7664 77.6712 33.8711C77.8156 33.9838 77.9894 34.0428 78.1927 34.0428H78.2408C78.4467 34.0428 78.6205 33.9838 78.7623 33.8684C78.8826 33.7664 78.9816 33.6349 79.0591 33.4685L82.2975 25.9589C82.3376 25.8676 82.359 25.763 82.359 25.6475C82.359 25.4516 82.2868 25.2718 82.1478 25.1269C81.8857 24.8531 81.4204 24.8182 81.1209 25.0705L81.1236 25.0732Z" fill="white"/>
<path d="M83.8619 25.1269C83.7148 25.2745 83.6399 25.4624 83.6399 25.6771V33.235C83.6399 33.4497 83.7174 33.6376 83.8619 33.7852C84.0089 33.9328 84.1934 34.0106 84.3994 34.0106C84.6053 34.0106 84.8032 33.9328 84.9476 33.7852C85.0946 33.6376 85.1722 33.447 85.1722 33.235V25.6771C85.1722 25.465 85.0946 25.2745 84.9502 25.1269C84.6641 24.837 84.164 24.8236 83.8645 25.1269H83.8619Z" fill="white"/>
<path d="M93.0557 32.4969H88.5684V30.1458H92.4593C92.6572 30.1458 92.8337 30.0733 92.9701 29.9338C93.1092 29.7942 93.184 29.6171 93.184 29.4185C93.184 29.2198 93.1118 29.0561 92.9781 28.9139C92.8391 28.7663 92.6599 28.6911 92.4593 28.6911H88.5684V26.4125H92.9969C93.1921 26.4125 93.3686 26.34 93.5103 26.2004C93.6467 26.0609 93.7216 25.8837 93.7216 25.6878C93.7216 25.4919 93.6493 25.3121 93.5103 25.1725C93.3712 25.0329 93.1947 24.9605 92.9969 24.9605H87.7956C87.5897 24.9605 87.4052 25.0383 87.2608 25.1832C87.1137 25.3308 87.0361 25.5187 87.0361 25.7334V33.1733C87.0361 33.388 87.1137 33.5785 87.2581 33.7235C87.4025 33.8711 87.5897 33.9489 87.7956 33.9489H93.0557C93.2536 33.9489 93.4301 33.8764 93.5691 33.7369C93.7082 33.5973 93.7804 33.4202 93.7804 33.2216C93.7804 33.023 93.7082 32.8485 93.5665 32.7063C93.4274 32.5694 93.2509 32.4969 93.0557 32.4969Z" fill="white"/>
<path d="M104.629 25.1242C104.482 25.2718 104.405 25.4597 104.405 25.6744V28.6911H100.164V25.6744C100.164 25.4597 100.086 25.2691 99.9416 25.1242C99.6554 24.8343 99.15 24.8263 98.8585 25.1242C98.7115 25.2718 98.6339 25.4597 98.6339 25.6744V33.2323C98.6339 33.447 98.7115 33.6376 98.8559 33.7825C99.1527 34.0831 99.6581 34.0697 99.9389 33.7825C100.086 33.6349 100.164 33.447 100.164 33.2323V30.1673H104.405V33.2323C104.405 33.447 104.482 33.6376 104.627 33.7825C104.771 33.9301 104.961 34.008 105.175 34.008C105.389 34.008 105.565 33.9301 105.712 33.7825C105.86 33.6349 105.934 33.447 105.934 33.2323V25.6744C105.934 25.4597 105.857 25.2718 105.712 25.1242C105.413 24.8209 104.908 24.837 104.629 25.1242Z" fill="white"/>
<path d="M115.216 26.1978C114.818 25.7764 114.334 25.4382 113.778 25.1886C112.66 24.6921 111.187 24.6921 110.053 25.194C109.494 25.4463 109.01 25.7871 108.609 26.2085C108.21 26.6299 107.897 27.1291 107.675 27.69C107.456 28.251 107.344 28.8441 107.344 29.4775C107.344 30.1109 107.453 30.6772 107.67 31.2328C107.887 31.791 108.199 32.2876 108.598 32.7063C108.996 33.1276 109.48 33.4685 110.037 33.7154C110.596 33.9623 111.221 34.0885 111.895 34.0885C112.569 34.0885 113.198 33.9597 113.762 33.71C114.318 33.4604 114.805 33.1169 115.206 32.6955C115.604 32.2741 115.917 31.7749 116.139 31.214C116.358 30.6531 116.471 30.0599 116.471 29.4265C116.471 28.7931 116.361 28.2268 116.144 27.6712C115.928 27.113 115.615 26.6164 115.216 26.1951V26.1978ZM114.674 30.7148C114.524 31.0959 114.318 31.4314 114.056 31.7132C113.799 31.995 113.484 32.2205 113.117 32.3815C112.393 32.7036 111.438 32.7089 110.716 32.3761C110.35 32.2097 110.029 31.9816 109.761 31.6998C109.494 31.4153 109.283 31.0798 109.135 30.696C108.986 30.3149 108.911 29.8962 108.911 29.4292C108.911 28.989 108.986 28.573 109.135 28.1946C109.285 27.8135 109.491 27.478 109.753 27.1962C110.013 26.9144 110.328 26.6889 110.692 26.5279C111.053 26.3668 111.457 26.2836 111.893 26.2836C112.328 26.2836 112.732 26.3668 113.091 26.5332C113.457 26.6996 113.778 26.9278 114.045 27.2096C114.313 27.4941 114.524 27.8296 114.671 28.2134C114.821 28.5945 114.896 29.0132 114.896 29.4802C114.896 29.9203 114.821 30.3364 114.671 30.7148H114.674Z" fill="white"/>
<path d="M125.715 24.9256H125.608C125.314 24.9256 125.073 25.0598 124.921 25.3067L122.177 29.448L119.434 25.304C119.364 25.202 119.278 25.1161 119.172 25.0437C119.051 24.9631 118.909 24.9229 118.746 24.9229H118.639C118.433 24.9229 118.249 25.0007 118.105 25.1457C117.957 25.2933 117.88 25.4785 117.88 25.6851V33.243C117.88 33.4578 117.955 33.6456 118.096 33.7852C118.383 34.0777 118.891 34.067 119.172 33.7852C119.313 33.6429 119.388 33.4524 119.388 33.2404V27.9342L121.519 31.0798C121.731 31.3831 121.987 31.4448 122.167 31.4448C122.346 31.4448 122.592 31.3804 122.806 31.0744L124.945 27.9181V33.2243C124.945 33.4282 125.023 33.6161 125.164 33.761C125.311 33.9167 125.501 33.9972 125.718 33.9972C125.924 33.9972 126.108 33.9194 126.255 33.7718C126.402 33.6242 126.477 33.4363 126.477 33.2216V25.6744C126.477 25.4704 126.4 25.2825 126.253 25.1349C126.106 24.99 125.921 24.9122 125.718 24.9122L125.715 24.9256Z" fill="white"/>
<path d="M134.786 32.7063C134.647 32.5694 134.471 32.4969 134.275 32.4969H129.788V30.1458H133.679C133.877 30.1458 134.053 30.0733 134.19 29.9338C134.329 29.7942 134.404 29.6171 134.404 29.4185C134.404 29.2198 134.331 29.0561 134.198 28.9139C134.059 28.7663 133.88 28.6911 133.679 28.6911H129.788V26.4125H134.216C134.412 26.4125 134.588 26.34 134.73 26.2004C134.866 26.0609 134.941 25.8837 134.941 25.6878C134.941 25.4919 134.869 25.3121 134.73 25.1725C134.591 25.0329 134.414 24.9605 134.216 24.9605H129.015C128.809 24.9605 128.625 25.0383 128.48 25.1832C128.333 25.3308 128.256 25.5187 128.256 25.7334V33.1733C128.256 33.388 128.333 33.5785 128.478 33.7235C128.622 33.8711 128.809 33.9489 129.015 33.9489H134.275C134.473 33.9489 134.65 33.8764 134.789 33.7369C134.928 33.5973 135 33.4202 135 33.2216C135 33.023 134.928 32.8485 134.786 32.7063Z" fill="white"/>
<path d="M56.7618 40.4091L56.1976 42.1214H55.4729L57.3154 36.6758H58.1604L60.011 42.1214H59.2622L58.6819 40.4091H56.7565H56.7618ZM58.5402 39.8589L58.008 38.2915C57.8877 37.9372 57.8074 37.6125 57.7272 37.2984H57.7112C57.631 37.6205 57.5427 37.9533 57.4384 38.2834L56.9063 39.8589H58.5402Z" fill="white"/>
<path d="M60.7624 39.4295C60.7624 38.9678 60.7544 38.5733 60.7303 38.2083H61.3508L61.3748 38.9759H61.4069C61.5834 38.4498 62.0113 38.1197 62.4846 38.1197C62.5648 38.1197 62.621 38.1278 62.6852 38.1439V38.8149C62.613 38.7988 62.5408 38.7907 62.4445 38.7907C61.9444 38.7907 61.5914 39.1718 61.4952 39.7032C61.4791 39.7999 61.4631 39.9126 61.4631 40.0334V42.1188H60.7624V39.4268V39.4295Z" fill="white"/>
<path d="M66.0894 41.9765C65.9049 42.0731 65.4931 42.202 64.9716 42.202C63.795 42.202 63.0302 41.4022 63.0302 40.2051C63.0302 39.0081 63.8511 38.1278 65.124 38.1278C65.5439 38.1278 65.9129 38.2324 66.1054 38.3291L65.945 38.8793C65.7765 38.7827 65.5118 38.6941 65.124 38.6941C64.2309 38.6941 63.7468 39.357 63.7468 40.1729C63.7468 41.0774 64.3271 41.6357 65.1 41.6357C65.5038 41.6357 65.7685 41.531 65.9691 41.4424L66.0894 41.9765Z" fill="white"/>
<path d="M66.9183 36.3832H67.627V38.8229H67.643C67.7553 38.6216 67.9318 38.4418 68.1511 38.321C68.3597 38.2002 68.6111 38.1197 68.8758 38.1197C69.4 38.1197 70.237 38.4418 70.237 39.7918V42.1188H69.5283V39.8723C69.5283 39.2416 69.2957 38.7102 68.6271 38.7102C68.1672 38.7102 67.8062 39.0323 67.6778 39.4214C67.6377 39.518 67.6297 39.6227 67.6297 39.7596V42.1188H66.921V36.3805L66.9183 36.3832Z" fill="white"/>
<path d="M72.1757 37.1106C72.1837 37.3521 72.0072 37.5454 71.7238 37.5454C71.4751 37.5454 71.2959 37.3521 71.2959 37.1106C71.2959 36.869 71.4804 36.665 71.7398 36.665C71.9992 36.665 72.1757 36.8583 72.1757 37.1106ZM71.3868 42.1214V38.211H72.0955V42.1214H71.3868Z" fill="white"/>
<path d="M74.1225 37.0864V38.2083H75.1361V38.7504H74.1225V40.86C74.1225 41.3458 74.2589 41.6196 74.6547 41.6196C74.8392 41.6196 74.9756 41.5954 75.0665 41.5712L75.0986 42.1053C74.9622 42.1617 74.7456 42.202 74.4702 42.202C74.1413 42.202 73.8738 42.0973 73.7054 41.9041C73.5048 41.6947 73.4326 41.3458 73.4326 40.8868V38.7531H72.8282V38.211H73.4326V37.2743L74.1252 37.0891L74.1225 37.0864Z" fill="white"/>
<path d="M76.2806 40.2964C76.2966 41.2572 76.909 41.6544 77.6176 41.6544C78.1257 41.6544 78.4306 41.5659 78.6953 41.4532L78.8157 41.9631C78.567 42.0758 78.1391 42.2047 77.5187 42.2047C76.318 42.2047 75.6013 41.4129 75.6013 40.232C75.6013 39.051 76.2939 38.1224 77.4278 38.1224C78.7007 38.1224 79.0376 39.2443 79.0376 39.9636C79.0376 40.1085 79.0216 40.2212 79.0136 40.2937H76.2752L76.2806 40.2964ZM78.3584 39.7864C78.3664 39.3329 78.1739 38.6297 77.377 38.6297C76.6603 38.6297 76.3474 39.2926 76.2913 39.7864H78.3611H78.3584Z" fill="white"/>
<path d="M82.696 41.9765C82.5114 42.0731 82.0996 42.202 81.5782 42.202C80.4015 42.202 79.6367 41.4022 79.6367 40.2051C79.6367 39.0081 80.4577 38.1278 81.7306 38.1278C82.1504 38.1278 82.5195 38.2324 82.712 38.3291L82.5516 38.8793C82.3831 38.7827 82.1184 38.6941 81.7306 38.6941C80.8374 38.6941 80.3534 39.357 80.3534 40.1729C80.3534 41.0774 80.9337 41.6357 81.7065 41.6357C82.1103 41.6357 82.3751 41.531 82.5756 41.4424L82.696 41.9765Z" fill="white"/>
<path d="M84.4823 37.0864V38.2083H85.4958V38.7504H84.4823V40.86C84.4823 41.3458 84.6187 41.6196 85.0144 41.6196C85.199 41.6196 85.3354 41.5954 85.4263 41.5712L85.4584 42.1053C85.322 42.1617 85.1054 42.202 84.8299 42.202C84.501 42.202 84.2336 42.0973 84.0651 41.9041C83.8646 41.6947 83.7924 41.3458 83.7924 40.8868V38.7531H83.188V38.211H83.7924V37.2743L84.485 37.0891L84.4823 37.0864Z" fill="white"/>
<path d="M89.5525 41.0559C89.5525 41.4585 89.5606 41.8155 89.5846 42.1214H88.9562L88.9161 41.4827H88.9C88.7155 41.7967 88.3037 42.21 87.6111 42.21C86.9987 42.21 86.266 41.8718 86.266 40.4977V38.211H86.9746V40.3769C86.9746 41.1203 87.1993 41.6222 87.8437 41.6222C88.3198 41.6222 88.6487 41.2921 88.777 40.9754C88.8172 40.8707 88.8412 40.7419 88.8412 40.6131V38.2137H89.5499V41.0586L89.5525 41.0559Z" fill="white"/>
<path d="M90.7291 39.4295C90.7291 38.9678 90.7211 38.5733 90.697 38.2083H91.3174L91.3415 38.9759H91.3736C91.5501 38.4498 91.9779 38.1197 92.4513 38.1197C92.5315 38.1197 92.5877 38.1278 92.6518 38.1439V38.8149C92.5796 38.7988 92.5074 38.7907 92.4112 38.7907C91.9111 38.7907 91.5581 39.1718 91.4618 39.7032C91.4458 39.7999 91.4297 39.9126 91.4297 40.0334V42.1188H90.7291V39.4268V39.4295Z" fill="white"/>
<path d="M93.6734 40.2964C93.6894 41.2572 94.3018 41.6544 95.0105 41.6544C95.5186 41.6544 95.8234 41.5659 96.0882 41.4532L96.2085 41.9631C95.9598 42.0758 95.5319 42.2047 94.9115 42.2047C93.7108 42.2047 92.9941 41.4129 92.9941 40.232C92.9941 39.051 93.6867 38.1224 94.8206 38.1224C96.0935 38.1224 96.4304 39.2443 96.4304 39.9636C96.4304 40.1085 96.4144 40.2212 96.4064 40.2937H93.668L93.6734 40.2964ZM95.7512 39.7864C95.7592 39.3329 95.5667 38.6297 94.7698 38.6297C94.0531 38.6297 93.7402 39.2926 93.6841 39.7864H95.7539H95.7512Z" fill="white"/>
<path d="M102.057 42.1214C101.918 41.9819 101.787 41.8423 101.597 41.6383C101.174 42.0329 100.701 42.202 100.161 42.202C99.2063 42.202 98.6527 41.5578 98.6527 40.8197C98.6527 40.1488 99.0538 39.6871 99.6127 39.3785V39.357C99.3587 39.0349 99.2036 38.678 99.2036 38.3264C99.2036 37.7279 99.6341 37.1133 100.45 37.1133C101.062 37.1133 101.535 37.5239 101.535 38.1573C101.535 38.6753 101.236 39.0859 100.458 39.4724V39.4939C100.872 39.977 101.34 40.5165 101.653 40.8681C101.878 40.5245 102.033 40.0495 102.126 39.4268H102.709C102.578 40.2024 102.367 40.8144 102.003 41.2465C102.266 41.5256 102.52 41.8021 102.811 42.1161H102.054L102.057 42.1214ZM101.284 41.2733C100.993 40.9513 100.447 40.3527 99.9015 39.7247C99.6395 39.8938 99.2678 40.2078 99.2678 40.7258C99.2678 41.2894 99.6823 41.7189 100.273 41.7189C100.696 41.7189 101.054 41.5283 101.287 41.2733H101.284ZM99.7919 38.27C99.7919 38.6216 99.9524 38.89 100.164 39.153C100.658 38.8685 100.979 38.6055 100.979 38.1895C100.979 37.8889 100.811 37.5534 100.412 37.5534C100.014 37.5534 99.7946 37.8889 99.7946 38.27H99.7919Z" fill="white"/>
<path d="M105.857 36.6758V42.1214H105.156V36.6758H105.857Z" fill="white"/>
<path d="M107.135 39.2684C107.135 38.8632 107.127 38.533 107.103 38.211H107.731L107.772 38.8578H107.788C107.98 38.4874 108.432 38.1224 109.077 38.1224C109.617 38.1224 110.454 38.4445 110.454 39.7864V42.1215H109.745V39.867C109.745 39.2362 109.512 38.7129 108.844 38.7129C108.376 38.7129 108.015 39.043 107.895 39.4402C107.862 39.5288 107.846 39.6496 107.846 39.7703V42.1215H107.138V39.2684H107.135Z" fill="white"/>
<path d="M112.425 37.0864V38.2083H113.438V38.7504H112.425V40.86C112.425 41.3458 112.561 41.6196 112.957 41.6196C113.141 41.6196 113.278 41.5954 113.369 41.5712L113.401 42.1053C113.264 42.1617 113.048 42.202 112.772 42.202C112.443 42.202 112.176 42.0973 112.007 41.9041C111.807 41.6947 111.735 41.3458 111.735 40.8868V38.7531H111.13V38.211H111.735V37.2743L112.427 37.0891L112.425 37.0864Z" fill="white"/>
<path d="M114.58 40.2964C114.596 41.2572 115.208 41.6544 115.917 41.6544C116.425 41.6544 116.73 41.5659 116.995 41.4532L117.115 41.9631C116.866 42.0758 116.439 42.2047 115.818 42.2047C114.617 42.2047 113.901 41.4129 113.901 40.232C113.901 39.051 114.593 38.1224 115.727 38.1224C117 38.1224 117.337 39.2443 117.337 39.9636C117.337 40.1085 117.321 40.2212 117.313 40.2937H114.575L114.58 40.2964ZM116.658 39.7864C116.666 39.3329 116.473 38.6297 115.676 38.6297C114.96 38.6297 114.647 39.2926 114.591 39.7864H116.66H116.658Z" fill="white"/>
<path d="M118.22 39.4295C118.22 38.9678 118.212 38.5733 118.188 38.2083H118.808L118.832 38.9759H118.864C119.041 38.4498 119.468 38.1197 119.942 38.1197C120.022 38.1197 120.078 38.1278 120.142 38.1439V38.8149C120.07 38.7988 119.998 38.7907 119.902 38.7907C119.402 38.7907 119.049 39.1718 118.952 39.7032C118.936 39.7999 118.92 39.9126 118.92 40.0334V42.1188H118.22V39.4268V39.4295Z" fill="white"/>
<path d="M121.672 37.1106C121.68 37.3521 121.503 37.5454 121.22 37.5454C120.971 37.5454 120.792 37.3521 120.792 37.1106C120.792 36.869 120.977 36.665 121.236 36.665C121.495 36.665 121.672 36.8583 121.672 37.1106ZM120.883 42.1214V38.211H121.592V42.1214H120.883Z" fill="white"/>
<path d="M126.293 40.1327C126.293 41.5793 125.295 42.21 124.354 42.21C123.3 42.21 122.485 41.4344 122.485 40.1971C122.485 38.8873 123.338 38.1197 124.418 38.1197C125.499 38.1197 126.293 38.9356 126.293 40.1327ZM123.202 40.1729C123.202 41.0291 123.694 41.6759 124.386 41.6759C125.079 41.6759 125.571 41.0371 125.571 40.1568C125.571 39.4939 125.242 38.6538 124.402 38.6538C123.563 38.6538 123.202 39.4295 123.202 40.1729Z" fill="white"/>
<path d="M127.186 39.4295C127.186 38.9678 127.178 38.5733 127.154 38.2083H127.774L127.798 38.9759H127.83C128.007 38.4498 128.435 38.1197 128.908 38.1197C128.988 38.1197 129.045 38.1278 129.109 38.1439V38.8149C129.037 38.7988 128.964 38.7907 128.868 38.7907C128.368 38.7907 128.015 39.1718 127.919 39.7032C127.903 39.7999 127.887 39.9126 127.887 40.0334V42.1188H127.186V39.4268V39.4295Z" fill="white"/>
</g>
<defs>
<clipPath id="clip0_2170_584">
<rect width="135" height="56" fill="white"/>
</clipPath>
</defs>
</svg>
